<mxfile host="app.diagrams.net" agent="Mozilla/5.0 (X11; Linux x86_64) AppleWebKit/537.36 (KHTML, like Gecko) Chrome/138.0.0.0 Safari/537.36" version="28.0.4">
  <diagram name="Enhanced Hybrid Architecture" id="hybrid-arch-002">
    <mxGraphModel dx="3574" dy="2284" grid="1" gridSize="10" guides="1" tooltips="1" connect="1" arrows="1" fold="1" page="1" pageScale="1" pageWidth="1600" pageHeight="1200" background="#ffffff" math="0" shadow="0">
      <root>
        <mxCell id="0" />
        <mxCell id="1" parent="0" />
        <mxCell id="2" value="INTERNAL NETWORK (ON-PREMISE OFFICE)" style="rounded=1;whiteSpace=wrap;html=1;fillColor=#ECF0F1;strokeColor=#1C3D72;strokeWidth=3;fontSize=18;fontStyle=1;fontColor=#1C3D72;verticalAlign=top;spacingTop=10;dashed=0;" parent="1" vertex="1">
          <mxGeometry y="-90" width="660" height="840" as="geometry" />
        </mxCell>
        <mxCell id="3" value="VPN SECURE TUNNEL" style="rounded=1;whiteSpace=wrap;html=1;fillColor=#3498DB;strokeColor=#2471A3;strokeWidth=3;fontSize=18;fontStyle=1;fontColor=#FFFFFF;verticalAlign=top;spacingTop=10;opacity=80;" parent="1" vertex="1">
          <mxGeometry x="690" y="-50" width="240" height="800" as="geometry" />
        </mxCell>
        <mxCell id="4" value="EXTERNAL NETWORK (CLOUD)" style="rounded=1;whiteSpace=wrap;html=1;fillColor=#ECF0F1;strokeColor=#8E44AD;strokeWidth=3;fontSize=18;fontStyle=1;fontColor=#8E44AD;verticalAlign=top;spacingTop=10;" parent="1" vertex="1">
          <mxGeometry x="960" y="-90" width="670" height="840" as="geometry" />
        </mxCell>
        <mxCell id="5" value="OFFICE NETWORK" style="rounded=1;whiteSpace=wrap;html=1;fillColor=#4A90E2;strokeColor=#2E5BBA;strokeWidth=2;fontSize=14;fontStyle=1;fontColor=#FFFFFF;" parent="1" vertex="1">
          <mxGeometry x="50" y="-40" width="560" height="60" as="geometry" />
        </mxCell>
        <mxCell id="6" value="CLOUD NETWORK" style="rounded=1;whiteSpace=wrap;html=1;fillColor=#8E44AD;strokeColor=#1C3D72;strokeWidth=2;fontSize=14;fontStyle=1;fontColor=#FFFFFF;" parent="1" vertex="1">
          <mxGeometry x="1040" y="-40" width="560" height="60" as="geometry" />
        </mxCell>
        <mxCell id="7" value="DMZ ZONE" style="rounded=1;whiteSpace=wrap;html=1;fillColor=#FADBD8;strokeColor=#E74C3C;strokeWidth=1;fontSize=12;fontStyle=1;fontColor=#34495E;verticalAlign=top;spacingTop=5;opacity=40;" parent="1" vertex="1">
          <mxGeometry x="80" y="120" width="390" height="330" as="geometry" />
        </mxCell>
        <mxCell id="8" value="DMZ ZONE" style="rounded=1;whiteSpace=wrap;html=1;fillColor=#FADBD8;strokeColor=#E74C3C;strokeWidth=1;fontSize=12;fontStyle=1;fontColor=#34495E;verticalAlign=top;spacingTop=5;opacity=40;" parent="1" vertex="1">
          <mxGeometry x="980" y="70" width="460" height="380" as="geometry" />
        </mxCell>
        <mxCell id="9" value="SECURE ZONE" style="rounded=1;whiteSpace=wrap;html=1;fillColor=#FDEBD0;strokeColor=#F39C12;strokeWidth=1;fontSize=12;fontStyle=1;fontColor=#34495E;verticalAlign=top;spacingTop=5;opacity=40;" parent="1" vertex="1">
          <mxGeometry x="80" y="460" width="560" height="270" as="geometry" />
        </mxCell>
        <mxCell id="10" value="SECURE ZONE" style="rounded=1;whiteSpace=wrap;html=1;fillColor=#FDEBD0;strokeColor=#F39C12;strokeWidth=1;fontSize=12;fontStyle=1;fontColor=#34495E;verticalAlign=top;spacingTop=5;opacity=40;" parent="1" vertex="1">
          <mxGeometry x="980" y="470" width="560" height="270" as="geometry" />
        </mxCell>
        <mxCell id="11" value="OFFICE USERS (Desktop &amp;amp; Mobile)" style="rounded=1;whiteSpace=wrap;html=1;fillColor=#2E5BBA;strokeColor=#1C3D72;strokeWidth=2;fontSize=12;fontStyle=1;fontColor=#FFFFFF;" parent="1" vertex="1">
          <mxGeometry x="190" y="160" width="140" height="60" as="geometry" />
        </mxCell>
        <mxCell id="12" value="WEB UI (React/Angular)" style="rounded=1;whiteSpace=wrap;html=1;fillColor=#F39C12;strokeColor=#34495E;strokeWidth=2;fontSize=12;fontStyle=1;fontColor=#FFFFFF;" parent="1" vertex="1">
          <mxGeometry x="180" y="330" width="160" height="70" as="geometry" />
        </mxCell>
        <mxCell id="16" value="JAVA BACKEND (Primary) Port: 8080" style="rounded=1;whiteSpace=wrap;html=1;fillColor=#27AE60;strokeColor=#34495E;strokeWidth=2;fontSize=12;fontStyle=1;fontColor=#FFFFFF;" parent="1" vertex="1">
          <mxGeometry x="190" y="490" width="160" height="80" as="geometry" />
        </mxCell>
        <mxCell id="17" value="POSTGRESQL MASTER Port: 5432" style="rounded=1;whiteSpace=wrap;html=1;fillColor=#E74C3C;strokeColor=#34495E;strokeWidth=2;fontSize=12;fontStyle=1;fontColor=#FFFFFF;" parent="1" vertex="1">
          <mxGeometry x="190" y="590" width="160" height="80" as="geometry" />
        </mxCell>
        <mxCell id="18" value="CONNECTION POOL" style="rounded=1;whiteSpace=wrap;html=1;fillColor=#4A90E2;strokeColor=#2E5BBA;strokeWidth=2;fontSize=10;fontStyle=1;fontColor=#FFFFFF;" parent="1" vertex="1">
          <mxGeometry x="190" y="550" width="70" height="20" as="geometry" />
        </mxCell>
        <mxCell id="19" value="MONITORING &amp; BACKUP" style="rounded=1;whiteSpace=wrap;html=1;fillColor=#F39C12;strokeColor=#34495E;strokeWidth=2;fontSize=12;fontStyle=1;fontColor=#FFFFFF;" parent="1" vertex="1">
          <mxGeometry x="210" y="670" width="120" height="50" as="geometry" />
        </mxCell>
        <mxCell id="20" value="EXTERNAL USERS (Desktop &amp; Mobile) Internet" style="rounded=1;whiteSpace=wrap;html=1;fillColor=#8E44AD;strokeColor=#1C3D72;strokeWidth=2;fontSize=12;fontStyle=1;fontColor=#FFFFFF;" parent="1" vertex="1">
          <mxGeometry x="1120" y="110" width="160" height="70" as="geometry" />
        </mxCell>
        <mxCell id="21" value="WEB UI (React/Angular)" style="rounded=1;whiteSpace=wrap;html=1;fillColor=#F39C12;strokeColor=#34495E;strokeWidth=2;fontSize=12;fontStyle=1;fontColor=#FFFFFF;" parent="1" vertex="1">
          <mxGeometry x="1120.0000000000002" y="360" width="160" height="70" as="geometry" />
        </mxCell>
        <mxCell id="25" value="JAVA BACKEND (Cloud) Port: 8080" style="rounded=1;whiteSpace=wrap;html=1;fillColor=#27AE60;strokeColor=#34495E;strokeWidth=2;fontSize=12;fontStyle=1;fontColor=#FFFFFF;" parent="1" vertex="1">
          <mxGeometry x="1090" y="520" width="160" height="80" as="geometry" />
        </mxCell>
        <mxCell id="26" value="POSTGRESQL REPLICA (READ) Port: 5432" style="rounded=1;whiteSpace=wrap;html=1;fillColor=#E74C3C;strokeColor=#34495E;strokeWidth=2;fontSize=12;fontStyle=1;fontColor=#FFFFFF;" parent="1" vertex="1">
          <mxGeometry x="1090" y="620" width="160" height="80" as="geometry" />
        </mxCell>
        <mxCell id="27" value="CONNECTION POOL" style="rounded=1;whiteSpace=wrap;html=1;fillColor=#4A90E2;strokeColor=#2E5BBA;strokeWidth=2;fontSize=10;fontStyle=1;fontColor=#FFFFFF;" parent="1" vertex="1">
          <mxGeometry x="1090" y="580" width="70" height="20" as="geometry" />
        </mxCell>
        <mxCell id="30" value="SITE-TO-SITE VPN TUNNEL Encrypted IPSec/WireGuard Certificate-based Authentication High Bandwidth Redundant Connections" style="rounded=1;whiteSpace=wrap;html=1;fillColor=#3498DB;strokeColor=#2471A3;strokeWidth=2;fontSize=12;fontStyle=1;fontColor=#FFFFFF;" parent="1" vertex="1">
          <mxGeometry x="710" y="290" width="200" height="200" as="geometry" />
        </mxCell>
        <mxCell id="31" value="POSTGRESQL STREAMING REPLICATION Asynchronous Master â†’ Replica Continuous Sync" style="rounded=1;whiteSpace=wrap;html=1;fillColor=#E74C3C;strokeColor=#34495E;strokeWidth=2;fontSize=12;fontStyle=1;fontColor=#FFFFFF;" parent="1" vertex="1">
          <mxGeometry x="710" y="510" width="200" height="140" as="geometry" />
        </mxCell>
        <mxCell id="32" value="READ/WRITE" style="edgeStyle=orthogonalEdgeStyle;rounded=1;html=1;exitX=0.5;exitY=1;entryX=0.5;entryY=0;fontSize=10;fontColor=#34495E;strokeColor=#2E5BBA;strokeWidth=2;" parent="1" source="11" target="12" edge="1">
          <mxGeometry relative="1" as="geometry" />
        </mxCell>
        <mxCell id="33" value="API Calls" style="edgeStyle=orthogonalEdgeStyle;rounded=1;html=1;exitX=0.5;exitY=1;entryX=0.5;entryY=0;fontSize=10;fontColor=#34495E;strokeColor=#2E5BBA;strokeWidth=2;" parent="1" target="16" edge="1">
          <mxGeometry relative="1" as="geometry">
            <mxPoint x="260" y="490" as="sourcePoint" />
          </mxGeometry>
        </mxCell>
        <mxCell id="34" value="READ/WRITE" style="edgeStyle=orthogonalEdgeStyle;rounded=1;html=1;exitX=0.5;exitY=1;entryX=0.5;entryY=0;fontSize=10;fontColor=#34495E;strokeColor=#2E5BBA;strokeWidth=2;" parent="1" source="16" target="17" edge="1">
          <mxGeometry relative="1" as="geometry" />
        </mxCell>
        <mxCell id="35" value="READ/WRITE" style="edgeStyle=orthogonalEdgeStyle;rounded=1;html=1;exitX=0.5;exitY=1;entryX=0.5;entryY=0;fontSize=10;fontColor=#34495E;strokeColor=#2E5BBA;strokeWidth=2;" parent="1" source="29" target="21" edge="1">
          <mxGeometry relative="1" as="geometry" />
        </mxCell>
        <mxCell id="36" value="API Calls" style="edgeStyle=orthogonalEdgeStyle;rounded=1;html=1;exitX=0.5;exitY=1;entryX=0.5;entryY=0;fontSize=10;fontColor=#34495E;strokeColor=#2E5BBA;strokeWidth=2;" parent="1" source="21" target="25" edge="1">
          <mxGeometry relative="1" as="geometry" />
        </mxCell>
        <mxCell id="37" value="READ" style="edgeStyle=orthogonalEdgeStyle;rounded=1;html=1;exitX=0.5;exitY=1;entryX=0.5;entryY=0;fontSize=10;fontColor=#34495E;strokeColor=#27AE60;strokeWidth=2;" parent="1" source="25" target="26" edge="1">
          <mxGeometry relative="1" as="geometry" />
        </mxCell>
        <mxCell id="38" value="" style="edgeStyle=orthogonalEdgeStyle;rounded=1;html=1;exitX=1;exitY=0.5;fontSize=10;fontColor=#34495E;strokeColor=#E74C3C;strokeWidth=2;dashed=1;" parent="1" source="17" target="31" edge="1">
          <mxGeometry relative="1" as="geometry" />
        </mxCell>
        <mxCell id="39" value="" style="edgeStyle=orthogonalEdgeStyle;rounded=1;html=1;entryX=0;entryY=0.5;fontSize=10;fontColor=#34495E;strokeColor=#E74C3C;strokeWidth=2;dashed=1;" parent="1" source="31" target="26" edge="1">
          <mxGeometry relative="1" as="geometry" />
        </mxCell>
        <mxCell id="40" value="WRITE Requests" style="edgeStyle=orthogonalEdgeStyle;rounded=1;html=1;exitX=0;exitY=0.5;entryX=1;entryY=0.5;fontSize=10;fontColor=#34495E;strokeColor=#E74C3C;strokeWidth=3;" parent="1" source="25" target="30" edge="1">
          <mxGeometry relative="1" as="geometry" />
        </mxCell>
        <mxCell id="41" value="WRITE Requests" style="edgeStyle=orthogonalEdgeStyle;rounded=1;html=1;exitX=0;exitY=0.5;entryX=1;entryY=0.5;fontSize=10;fontColor=#34495E;strokeColor=#E74C3C;strokeWidth=3;" parent="1" source="30" target="16" edge="1">
          <mxGeometry relative="1" as="geometry">
            <Array as="points">
              <mxPoint x="530" y="390" />
              <mxPoint x="530" y="530" />
            </Array>
          </mxGeometry>
        </mxCell>
        <mxCell id="42" value="HYBRID&amp;nbsp;&lt;div&gt;ARCHITECTURE&lt;/div&gt;" style="text;html=1;strokeColor=none;fillColor=none;align=center;verticalAlign=middle;whiteSpace=wrap;rounded=0;fontSize=22;fontStyle=1;fontColor=#1C3D72;" parent="1" vertex="1">
          <mxGeometry x="580" y="-110" width="450" height="30" as="geometry" />
        </mxCell>
        <mxCell id="43" value="" style="rounded=1;whiteSpace=wrap;html=1;fillColor=#FFFFFF;strokeColor=#34495E;strokeWidth=1;" parent="1" vertex="1">
          <mxGeometry x="560" y="770" width="500" height="120" as="geometry" />
        </mxCell>
        <mxCell id="44" value="LEGEND" style="text;html=1;strokeColor=none;fillColor=none;align=center;verticalAlign=middle;whiteSpace=wrap;rounded=0;fontSize=14;fontStyle=1;fontColor=#34495E;" parent="1" vertex="1">
          <mxGeometry x="810" y="780" width="100" height="20" as="geometry" />
        </mxCell>
        <mxCell id="45" value="" style="rounded=0;whiteSpace=wrap;html=1;fillColor=#27AE60;strokeColor=#34495E;strokeWidth=1;" parent="1" vertex="1">
          <mxGeometry x="570" y="810" width="20" height="20" as="geometry" />
        </mxCell>
        <mxCell id="46" value="READ Operations" style="text;html=1;strokeColor=none;fillColor=none;align=left;verticalAlign=middle;whiteSpace=wrap;rounded=0;fontSize=12;fontColor=#34495E;" parent="1" vertex="1">
          <mxGeometry x="600" y="810" width="120" height="20" as="geometry" />
        </mxCell>
        <mxCell id="47" value="" style="rounded=0;whiteSpace=wrap;html=1;fillColor=#E74C3C;strokeColor=#34495E;strokeWidth=1;" parent="1" vertex="1">
          <mxGeometry x="570" y="840" width="20" height="20" as="geometry" />
        </mxCell>
        <mxCell id="48" value="WRITE Operations" style="text;html=1;strokeColor=none;fillColor=none;align=left;verticalAlign=middle;whiteSpace=wrap;rounded=0;fontSize=12;fontColor=#34495E;" parent="1" vertex="1">
          <mxGeometry x="600" y="840" width="120" height="20" as="geometry" />
        </mxCell>
        <mxCell id="49" value="" style="rounded=0;whiteSpace=wrap;html=1;fillColor=#FADBD8;strokeColor=#34495E;strokeWidth=1;" parent="1" vertex="1">
          <mxGeometry x="730" y="810" width="20" height="20" as="geometry" />
        </mxCell>
        <mxCell id="50" value="DMZ Zone" style="text;html=1;strokeColor=none;fillColor=none;align=left;verticalAlign=middle;whiteSpace=wrap;rounded=0;fontSize=12;fontColor=#34495E;" parent="1" vertex="1">
          <mxGeometry x="760" y="810" width="80" height="20" as="geometry" />
        </mxCell>
        <mxCell id="51" value="" style="rounded=0;whiteSpace=wrap;html=1;fillColor=#FDEBD0;strokeColor=#34495E;strokeWidth=1;" parent="1" vertex="1">
          <mxGeometry x="730" y="840" width="20" height="20" as="geometry" />
        </mxCell>
        <mxCell id="52" value="Secure Zone" style="text;html=1;strokeColor=none;fillColor=none;align=left;verticalAlign=middle;whiteSpace=wrap;rounded=0;fontSize=12;fontColor=#34495E;" parent="1" vertex="1">
          <mxGeometry x="760" y="840" width="80" height="20" as="geometry" />
        </mxCell>
        <mxCell id="53" value="" style="rounded=0;whiteSpace=wrap;html=1;fillColor=#3498DB;strokeColor=#34495E;strokeWidth=1;" parent="1" vertex="1">
          <mxGeometry x="850" y="810" width="20" height="20" as="geometry" />
        </mxCell>
        <mxCell id="54" value="VPN Tunnel" style="text;html=1;strokeColor=none;fillColor=none;align=left;verticalAlign=middle;whiteSpace=wrap;rounded=0;fontSize=12;fontColor=#34495E;" parent="1" vertex="1">
          <mxGeometry x="880" y="810" width="80" height="20" as="geometry" />
        </mxCell>
        <mxCell id="55" value="" style="rounded=0;whiteSpace=wrap;html=1;fillColor=#E74C3C;strokeColor=#34495E;strokeWidth=1;" parent="1" vertex="1">
          <mxGeometry x="850" y="840" width="20" height="20" as="geometry" />
        </mxCell>
        <mxCell id="56" value="Database Replication" style="text;html=1;strokeColor=none;fillColor=none;align=left;verticalAlign=middle;whiteSpace=wrap;rounded=0;fontSize=12;fontColor=#34495E;" parent="1" vertex="1">
          <mxGeometry x="880" y="840" width="140" height="20" as="geometry" />
        </mxCell>
        <mxCell id="57" value="ARCHITECTURE NOTES: â€¢ All WRITE operations from external network pass through the secure tunnel to master DB â€¢ READ operations in external network use local replica DB â€¢ PostgreSQL streaming replication ensures data consistency â€¢ Security zones isolate critical infrastructure â€¢ Redundant tunnel connections provide high availability" style="text;html=1;strokeColor=none;fillColor=none;align=left;verticalAlign=top;whiteSpace=wrap;rounded=0;fontSize=12;fontColor=#34495E;fontStyle=2;" parent="1" vertex="1">
          <mxGeometry x="410" y="900" width="800" height="80" as="geometry" />
        </mxCell>
        <mxCell id="JM6YeEI7fPwDFWxGcah_-57" value="" style="edgeStyle=orthogonalEdgeStyle;rounded=1;html=1;exitX=0.5;exitY=1;entryX=0.5;entryY=0;fontSize=10;fontColor=#34495E;strokeColor=#2E5BBA;strokeWidth=2;" parent="1" source="12" edge="1">
          <mxGeometry relative="1" as="geometry">
            <mxPoint x="180" y="450" as="sourcePoint" />
            <mxPoint x="260" y="460" as="targetPoint" />
          </mxGeometry>
        </mxCell>
        <mxCell id="JM6YeEI7fPwDFWxGcah_-58" value="" style="edgeStyle=orthogonalEdgeStyle;rounded=1;html=1;exitX=0.5;exitY=1;entryX=0.5;entryY=0;fontSize=10;fontColor=#34495E;strokeColor=#2E5BBA;strokeWidth=2;" parent="1" source="20" target="29" edge="1">
          <mxGeometry relative="1" as="geometry">
            <mxPoint x="1080" y="360" as="sourcePoint" />
            <mxPoint x="1080" y="380" as="targetPoint" />
          </mxGeometry>
        </mxCell>
        <mxCell id="29" value="INTERNET GATEWAY" style="ellipse;whiteSpace=wrap;html=1;fillColor=#4A90E2;strokeColor=#2E5BBA;strokeWidth=2;fontSize=12;fontStyle=1;fontColor=#FFFFFF;" parent="1" vertex="1">
          <mxGeometry x="1148.75" y="200" width="101.25" height="30" as="geometry" />
        </mxCell>
        <mxCell id="JM6YeEI7fPwDFWxGcah_-61" value="" style="edgeStyle=orthogonalEdgeStyle;rounded=0;orthogonalLoop=1;jettySize=auto;html=1;" parent="1" source="23" target="21" edge="1">
          <mxGeometry relative="1" as="geometry" />
        </mxCell>
        <mxCell id="23" value="CLOUD FIREWALL &amp; WAF" style="rounded=1;whiteSpace=wrap;html=1;fillColor=#34495E;strokeColor=#E74C3C;strokeWidth=2;fontSize=12;fontStyle=1;fontColor=#FFFFFF;arcSize=7;" parent="1" vertex="1">
          <mxGeometry x="1131.25" y="245" width="136.25" height="30" as="geometry" />
        </mxCell>
        <mxCell id="15" value="VPN GATEWAY IPSec/WireGuard" style="rounded=1;whiteSpace=wrap;html=1;fillColor=#3498DB;strokeColor=#2471A3;strokeWidth=2;fontSize=12;fontStyle=1;fontColor=#FFFFFF;" parent="1" vertex="1">
          <mxGeometry x="540" y="365" width="120" height="60" as="geometry" />
        </mxCell>
        <mxCell id="14" value="FIREWALL &amp; SECURITY" style="rounded=1;whiteSpace=wrap;html=1;fillColor=#34495E;strokeColor=#E74C3C;strokeWidth=2;fontSize=12;fontStyle=1;fontColor=#FFFFFF;" parent="1" vertex="1">
          <mxGeometry x="410" y="500" width="120" height="60" as="geometry" />
        </mxCell>
      </root>
    </mxGraphModel>
  </diagram>
</mxfile>
